<?xml version="1.0" encoding="utf-8"?>
<svg version="1.1" xmlns="http://www.w3.org/2000/svg" xmlns:xlink="http://www.w3.org/1999/xlink" viewBox="0 0 1000 1000">
    <path
        d="M479.1,798.4c2.6,12.3,6.8,25.5,12.6,39.7c5.8,14.2,14.2,28.6,25.2,43.1c11,14.5,25.2,28.9,42.6,43.1c17.4,14.2,39.1,27.4,64.9,39.7c-17.4,4.5-37.4,8.1-60,10.7c-19.4,2.6-43.1,4.8-71.2,6.8c-28.1,1.9-60.5,2.9-97.3,2.9c-18.7,0-40.2-0.6-64.4-1.9c-24.2-1.3-49.4-3.2-75.5-5.8c-26.1-2.6-52-5.5-77.5-8.7c-25.5-3.2-48.9-6.5-70.2-9.7C86.9,955,69,951.6,54.5,948c-14.5-3.6-23.7-6.9-27.6-10.2c-6.5-5.2-11.5-21-15-47.4c-3.6-26.5-2.1-60.4,4.4-101.7c3.9-23.9,13.6-42,29-54.2C60.8,722.3,78.7,712.4,99,705s41.6-14.2,63.9-20.3c22.3-6.1,42.1-14.7,59.5-25.7c13.6-8.4,23.9-16.5,31-24.2s12.1-15.5,15-23.2c2.9-7.7,4.4-15.8,4.4-24.2c0-8.4-0.3-17.4-1-27.1c-1.3-15.5-6.3-27.4-15-35.8c-8.7-8.4-18.6-17.1-29.5-26.1c-5.2-4.5-9.7-10.8-13.6-18.9c-3.9-8.1-7.4-16.3-10.7-24.7c-3.2-9.7-6.5-19.7-9.7-30c-4.5-1.3-9-3.5-13.6-6.8c-3.9-3.2-7.9-7.7-12.1-13.6c-4.2-5.8-7.9-14.2-11.1-25.2c-3.2-11-4.4-20.8-3.4-29.5c1-8.7,2.7-16.6,5.3-23.7c2.6-7.7,6.5-14.8,11.6-21.3c0-24.5,1.3-49.1,3.9-73.6c2.6-20.7,7.1-42.8,13.6-66.3c6.5-23.6,16.5-44.7,30-63.4c12.3-17.4,25.8-31.8,40.7-43.1c14.8-11.3,30-20.2,45.5-26.6c15.5-6.5,31.1-11,47-13.6s30.8-3.9,45-3.9c18.7,0,36.6,2.3,53.7,6.8c17.1,4.5,32.9,10.3,47.4,17.4s27.6,15.2,39.2,24.2c11.6,9,21,18.1,28.1,27.1c16.1,20.7,28.2,43.4,36.3,68.3c8.1,24.9,13.7,48.3,16.9,70.2c3.2,25.8,4.5,51.6,3.9,77.5c4.5,3.2,8.1,7.4,10.7,12.6c2.6,4.5,4.7,10.3,6.3,17.4c1.6,7.1,1.8,15.8,0.5,26.1c-1.3,14.2-4,25.3-8.2,33.4c-4.2,8.1-8.9,14.4-14,18.9c-5.8,5.2-11.9,8.7-18.4,10.7c-3.2,10.3-6.5,20.3-9.7,30c-3.2,8.4-6.8,16.6-10.7,24.7c-3.9,8.1-8.4,14.4-13.6,18.9c-5.8,5.2-10.3,10.2-13.6,15c-3.2,4.8-5.8,9.8-7.7,15c-1.9,5.2-4,10.8-6.3,16.9c-2.3,6.1-5.6,12.8-10.2,19.8c-14.8,23.2-26.5,45.2-34.9,65.8c-8.4,20.7-14.2,40.5-17.4,59.5c-3.2,19-4.2,37.4-2.9,55.2C472.6,763.4,475.2,781,479.1,798.4L479.1,798.4z M974.8,928.2c9,11,14,20.3,15,28.1c1,7.7-2.1,15.2-9.2,22.3c-3.9,4.5-8.9,6.9-15,7.3c-6.1,0.3-12.6-0.8-19.4-3.4c-6.8-2.6-13.2-5.8-19.4-9.7c-6.1-3.9-11.5-7.7-16-11.6l-67.8-62c-18.1,11-37.3,18.9-57.6,23.7c-20.3,4.8-40.7,6.6-61,5.3c-20.3-1.3-40.2-6.3-59.5-15c-19.4-8.7-36.8-21.1-52.3-37.3c-18.1-18.1-31.6-38.6-40.7-61.5c-9-22.9-13.6-46.3-13.6-70.2c0-23.9,4.5-47.3,13.6-70.2c9-22.9,22.6-43.4,40.7-61.5c17.4-18.1,37.4-31.6,60-40.7s45.5-13.6,68.7-13.6s46.2,4.5,68.7,13.6s42.9,22.6,61,40.7c15.5,16.1,27.6,34.2,36.3,54.2c8.7,20,13.9,40.3,15.5,61c1.6,20.7,0,41.3-4.8,62c-4.8,20.7-12.7,39.7-23.7,57.1l36.8,36.8c9.7,9.7,18.7,18.9,27.1,27.6C966.8,920,972.2,925.6,974.8,928.2L974.8,928.2z M743.4,868.2c16.8,0,32.6-3.2,47.4-9.7c14.8-6.5,27.8-15.3,38.7-26.6c11-11.3,19.7-24.5,26.1-39.7c6.5-15.2,9.7-31.5,9.7-48.9c0-17.4-3.2-33.6-9.7-48.4c-6.5-14.8-15.2-27.9-26.1-39.2c-11-11.3-23.9-20.2-38.7-26.6c-14.8-6.5-30.7-9.7-47.4-9.7s-32.6,3.2-47.4,9.7s-27.8,15.3-38.7,26.6c-11,11.3-19.7,24.4-26.1,39.2c-6.5,14.8-9.7,31-9.7,48.4c0,17.4,3.2,33.7,9.7,48.9s15.2,28.4,26.1,39.7c11,11.3,23.9,20.2,38.7,26.6C710.8,864.9,726.6,868.1,743.4,868.2L743.4,868.2z" fill="rgb(83, 109, 134)"/>
</svg>
